<svg width="721" height="446" viewBox="0 0 721 446" fill="none" xmlns="http://www.w3.org/2000/svg">
<g clip-path="url(#clip0_4_45)">
<path d="M524.354 275.706C523.9 275.731 523.45 275.588 523.066 275.295C522.682 275.003 522.382 274.575 522.206 274.07C522.031 273.565 521.989 273.008 522.086 272.473C522.182 271.938 522.413 271.452 522.747 271.081L522.899 270.354C522.879 270.295 522.859 270.237 522.839 270.179C522.381 268.878 521.614 267.769 520.634 266.992C519.655 266.214 518.506 265.801 517.332 265.807C516.158 265.812 515.012 266.234 514.037 267.021C513.062 267.808 512.302 268.924 511.853 270.228C510.056 275.436 507.768 280.652 507.205 286.158C506.957 288.592 507.061 291.059 507.514 293.45C503.294 282.372 501.102 270.332 501.088 258.146C501.087 255.088 501.228 252.032 501.511 248.993C501.745 246.501 502.069 244.028 502.483 241.572C504.745 228.246 509.602 215.756 516.654 205.128C520.067 202.887 522.828 199.44 524.563 195.253C525.192 193.748 525.636 192.142 525.883 190.483C525.498 190.544 524.431 183.488 524.721 183.055C524.185 182.075 523.224 181.588 522.638 180.632C519.723 175.877 515.708 176.707 513.612 183.169C509.133 185.888 509.09 190.399 511.838 194.737C513.586 197.497 513.826 201.231 515.36 204.186C515.202 204.429 515.038 204.664 514.88 204.908C511.996 209.371 509.481 214.164 507.374 219.218C507.886 213.556 507.275 207.829 505.589 202.507C503.88 197.548 500.678 193.371 497.858 189.083C494.471 183.933 487.525 186.181 486.928 192.709C486.922 192.772 486.916 192.836 486.911 192.899C487.33 193.183 487.74 193.485 488.141 193.804C488.645 194.209 489.035 194.788 489.261 195.465C489.487 196.142 489.538 196.885 489.407 197.597C489.276 198.309 488.969 198.957 488.527 199.456C488.084 199.955 487.527 200.281 486.928 200.392L486.867 200.403C487.016 202.22 487.28 204.02 487.656 205.789C484.038 222.624 491.848 228.756 503.001 229.031C503.247 229.183 503.487 229.335 503.733 229.48C501.615 236.701 500.287 244.223 499.782 251.856C499.495 256.36 499.512 260.884 499.832 265.384L499.813 265.225C499.005 260.221 496.787 255.705 493.532 252.441C488.699 247.664 481.87 245.904 476.656 242.064C476.102 241.636 475.458 241.407 474.799 241.405C474.141 241.403 473.495 241.628 472.939 242.053C472.384 242.478 471.94 243.085 471.662 243.803C471.383 244.521 471.281 245.32 471.368 246.106C471.375 246.162 471.382 246.218 471.389 246.274C472.166 246.655 472.923 247.093 473.655 247.588C474.074 247.872 474.484 248.174 474.885 248.493C475.389 248.898 475.78 249.477 476.006 250.154C476.231 250.831 476.282 251.574 476.151 252.286C476.02 252.998 475.713 253.646 475.271 254.145C474.829 254.643 474.271 254.97 473.672 255.081L473.611 255.092C473.567 255.1 473.529 255.107 473.485 255.115C474.813 258.931 476.677 262.443 478.995 265.498C481.257 280.195 490.973 281.589 501.366 277.309H501.372C502.513 283.272 504.165 289.076 506.302 294.628H523.913C523.976 294.392 524.033 294.149 524.09 293.914C522.46 294.037 520.823 293.92 519.217 293.564C520.524 291.635 521.83 289.69 523.137 287.761C523.166 287.725 523.193 287.687 523.219 287.647C523.882 286.66 524.551 285.68 525.214 284.692L525.214 284.691C525.249 281.664 524.961 278.645 524.355 275.707L524.354 275.706Z" fill="#F2E8CF"/>
<path d="M577.097 330.621H439.838C430.488 330.621 421.521 335.09 414.91 343.046C408.298 351.002 404.584 361.792 404.584 373.043V443.744H415.644V404.731C415.644 393.48 419.358 382.69 425.969 374.734C432.581 366.778 441.548 362.309 450.898 362.309H566.037C575.387 362.309 584.354 366.778 590.966 374.734C597.577 382.69 601.291 393.48 601.291 404.731V443.744H612.351V373.043C612.351 361.792 608.637 351.002 602.026 343.046C595.414 335.09 586.447 330.621 577.097 330.621Z" fill="#F2E8CF"/>
<path d="M509.258 348.682C529.109 348.682 545.202 345.916 545.202 342.503C545.202 339.091 529.109 336.324 509.258 336.324C489.406 336.324 473.313 339.091 473.313 342.503C473.313 345.916 489.406 348.682 509.258 348.682Z" fill="#E6E6E6"/>
<path d="M536.431 344.053H488.554C476.735 330.423 468.285 317.287 475.05 306.384C475.05 303.249 476.085 300.244 477.927 298.027C479.768 295.811 482.266 294.566 484.871 294.566H540.113C542.718 294.566 545.216 295.811 547.058 298.027C548.9 300.244 549.934 303.249 549.934 306.384C552.51 318.808 547.908 331.366 536.431 344.053Z" fill="#F2E8CF"/>
<path d="M377.69 140.435C320.568 101.44 342.424 1.02758 279.675 33.0154C198.194 9.66601 244.509 107.195 172.18 140.435C168.868 140.435 165.588 141.22 162.528 142.745C159.468 144.271 156.687 146.506 154.345 149.325C152.003 152.143 150.145 155.489 148.877 159.171C147.609 162.854 146.957 166.801 146.957 170.787V170.787C146.957 174.862 147.639 178.896 148.963 182.648C150.286 186.399 152.224 189.792 154.661 192.623C157.098 195.453 159.983 197.665 163.146 199.125C166.308 200.584 169.682 201.263 173.067 201.12L182.507 200.72V296.336H367.364V200.72L376.804 201.12C380.189 201.263 383.563 200.585 386.725 199.125C389.888 197.665 392.773 195.453 395.21 192.623C397.646 189.792 399.584 186.399 400.908 182.648C402.232 178.896 402.914 174.862 402.914 170.787V170.787C402.914 166.801 402.261 162.854 400.994 159.171C399.726 155.489 397.868 152.143 395.526 149.325C393.184 146.506 390.403 144.271 387.343 142.745C384.283 141.22 381.003 140.435 377.69 140.435Z" fill="#E6E6E6"/>
<path d="M360.055 341.014H187.446C185.507 341.014 183.648 341.941 182.277 343.59C180.907 345.24 180.137 347.477 180.137 349.81V362.639C180.137 364.972 180.907 367.209 182.277 368.858C183.648 370.508 185.507 371.434 187.446 371.434H200.676V445.582H210.156V371.434H333.395V445.582H342.874V371.434H360.055C361.994 371.434 363.853 370.507 365.223 368.858C366.594 367.209 367.364 364.972 367.364 362.639V349.81C367.364 347.477 366.594 345.24 365.223 343.591C363.853 341.941 361.994 341.014 360.055 341.014Z" fill="#E6E6E6"/>
<path d="M395.605 320.101H390.313C391.843 316.924 392.647 313.316 392.644 309.644V187.966C392.644 182.419 390.813 177.099 387.553 173.177C384.294 169.255 379.874 167.052 375.264 167.052C370.655 167.052 366.234 169.255 362.975 173.177C359.715 177.099 357.884 182.419 357.884 187.966V288.535C227.778 266.545 312.567 266.767 195.146 289.235V187.966C195.146 182.419 193.315 177.099 190.056 173.177C186.797 169.255 182.376 167.052 177.767 167.052C173.157 167.052 168.737 169.255 165.477 173.177C162.218 177.099 160.387 182.419 160.387 187.966V309.644C160.384 313.316 161.188 316.924 162.718 320.101H151.896C149.958 320.101 148.099 321.028 146.728 322.677C145.357 324.326 144.587 326.563 144.587 328.896V341.726C144.587 344.058 145.357 346.295 146.728 347.945C148.099 349.594 149.958 350.521 151.896 350.521H395.605C397.543 350.521 399.402 349.594 400.773 347.945C402.144 346.295 402.914 344.058 402.914 341.726V328.896C402.914 326.563 402.144 324.326 400.773 322.677C399.402 321.028 397.543 320.101 395.605 320.101Z" fill="#F2E8CF"/>
<path d="M150.155 195.832C153.225 196.169 156.284 195.051 158.679 192.716C161.075 190.381 162.619 187.014 162.982 183.33C163.047 182.58 163.059 181.824 163.02 181.072L235.391 137.985L217.81 112.705L149.904 168.424C147.323 168.862 144.935 170.316 143.113 172.559C141.291 174.802 140.138 177.708 139.832 180.823C139.51 184.406 140.384 187.997 142.262 190.806C144.14 193.614 146.868 195.409 149.846 195.797C149.949 195.81 150.052 195.822 150.155 195.832Z" fill="#FFB6B6"/>
<path d="M309.185 117.64C309.185 117.64 316.213 100.86 294.268 94.7707C272.323 88.6816 231.808 109.185 229.746 111.527C227.685 113.869 230.363 110.688 223.843 109.469C220.712 108.883 214.463 102.509 213.18 107.872C211.897 113.236 212.251 119.676 208.496 114.463C204.741 109.249 219.538 159.04 219.538 159.04C219.538 159.04 221.448 158.671 228.216 154.353C232.018 151.927 232.058 141.856 234.602 144.674C237.145 147.491 259.759 147.012 261.03 146.641C262.301 146.27 267.999 133.645 267.999 133.645L309.185 117.64Z" fill="#386641"/>
<path d="M191.581 429.907L179.533 426.884L183.485 369.525L201.268 373.985L191.581 429.907Z" fill="#FFB6B6"/>
<path d="M189.386 445.138L152.335 435.845L152.433 435.282C153.23 430.679 155.514 426.647 158.782 424.07C162.05 421.494 166.035 420.586 169.859 421.545L169.86 421.545L177.698 417.063L189.255 426.409L192.489 427.22L189.386 445.138Z" fill="#386641"/>
<path d="M399.028 363.424L411.02 360.091L406.043 302.847L388.345 307.765L399.028 363.424Z" fill="#FFB6B6"/>
<path d="M401.495 378.595L438.371 368.346L438.263 367.785C437.384 363.205 435.028 359.232 431.715 356.741C428.402 354.25 424.402 353.445 420.595 354.502L420.594 354.502L412.678 350.225L401.291 359.867L398.072 360.762L401.495 378.595Z" fill="#386641"/>
<path d="M257.556 231.694L255.488 259.848C255.488 259.848 188.324 233.892 187.507 294.947C187.247 314.397 180.137 389.496 180.137 389.496L200.676 393.298C200.676 393.298 211.736 373.335 211.736 366.681C211.736 360.027 222.796 311.545 222.796 311.545L280.439 304.723C341.295 300.138 360.254 298.237 373.684 245.953C373.684 245.953 381.872 315.906 386.468 321.33C391.064 326.755 394.466 321.362 388.815 328.337C383.164 335.311 379.214 332.459 383.164 335.311C387.114 338.163 410.814 333.41 410.814 333.41C416.107 334.124 409.319 232.194 391.581 202.112C375.753 175.27 321.142 259.621 321.142 259.621L257.556 231.694Z" fill="#386641"/>
<path d="M328.721 111.934C328.721 111.934 349.251 109.13 353.624 120.969C357.996 132.808 369.016 157.46 369.016 157.46C369.016 157.46 363.365 160.356 369.136 152.83C371.722 149.458 366.95 151.515 370.229 150.2C373.509 148.884 374.602 150.2 374.602 150.2L385.534 172.562C385.534 172.562 384.655 177.658 378.975 177.824C373.295 177.99 382.254 171.247 374.602 180.455C370.651 185.21 356.304 191.768 356.304 191.768L319.632 151.213L328.721 111.934Z" fill="#386641"/>
<path d="M263.983 99.9214L284.732 93.4514L294.417 77.3766L317.419 80.7792L322.316 102.705L338.691 114.143C338.691 114.143 329.64 229.34 331.793 235.665C333.946 241.99 328.722 247.282 322.129 255.436C315.537 263.59 327.607 254.492 329.137 263.369C330.667 272.246 341.819 281.641 329.137 281.547C316.455 281.454 246.7 285.691 248.886 275.168C251.072 264.644 244.271 261.764 247.568 255.166C250.864 248.568 253.083 252.255 251.974 242.519C250.864 232.782 251.958 226.205 251.958 220.943C251.958 215.681 255.62 167.866 255.62 167.866L263.983 99.9214Z" fill="#A7C957"/>
<path d="M338.527 281.745C342.484 290.243 320.194 292.742 296.046 291.598C295.579 289.446 294.806 287.408 293.761 285.573C291.094 280.916 294.319 249.411 290.427 246.228C292.187 251.358 285.07 285.455 283.584 290.703C261.742 288.598 241.835 283.823 242.076 278.141C242.141 276.483 246.7 244.912 248.908 242.518C251.105 240.124 248.886 194.925 248.908 185.23C248.919 175.522 260.911 104.159 260.911 101.528C260.911 98.8968 289.334 85.7422 289.334 85.7422L301.359 168.616L319.637 90.6883C321.424 93.6123 323.49 96.2745 325.792 98.6205C329.454 102.291 343.993 117.313 343.993 117.313L331.542 228.18C331.542 228.18 337.434 244.912 337.128 251.555C337.009 256.826 336.148 262.035 334.581 266.959C332.81 273.208 332.996 269.853 338.527 281.745Z" fill="#386641"/>
<path d="M358.085 52.6627C360.363 55.1624 361.74 58.633 361.924 62.3361C362.108 66.0392 361.084 69.6825 359.07 72.4907C358.653 73.0538 358.198 73.5744 357.709 74.0471L380.103 167.398L352.734 168.836L341.102 70.9297C339.63 68.3414 338.911 65.2395 339.058 62.108C339.205 58.9765 340.209 55.9916 341.914 53.619C342.895 52.2802 344.085 51.187 345.417 50.4018C346.749 49.6166 348.197 49.1547 349.677 49.0426C351.157 48.9306 352.641 49.1704 354.045 49.7485C355.448 50.3267 356.743 51.2317 357.855 52.412C357.933 52.4943 358.01 52.5778 358.085 52.6627Z" fill="#FFB6B6"/>
<path d="M348.423 160.871C349.297 160.034 376.534 149.393 376.534 149.393C376.534 149.393 388.102 170.102 381.111 176.803C374.121 183.505 358.851 185.252 358.851 185.252C358.851 185.252 352.435 180.908 352.586 175.789C352.736 170.669 348.423 160.871 348.423 160.871Z" fill="#386641"/>
<path d="M331.57 64.9164L334.531 38.6791C334.941 35.041 337.007 32.652 339.135 33.3539L344.428 35.0995C346.556 35.8013 347.953 39.3324 347.543 42.9706L344.582 69.2078C344.171 72.8459 342.106 75.2349 339.978 74.533L334.685 72.7875C332.557 72.0856 331.16 68.5545 331.57 64.9164Z" fill="#3F3D56"/>
<path d="M333.037 63.3925L336.055 39.3921C336.473 36.0641 337.979 33.9517 339.411 34.6835L342.973 36.5035C344.405 37.2352 345.23 40.5383 344.812 43.8663L341.794 67.8668C341.376 71.1948 339.87 73.3071 338.438 72.5753L334.876 70.7554C333.444 70.0236 332.619 66.7205 333.037 63.3925Z" fill="#A7C957"/>
<path d="M276.741 38.4636C278.798 58.4426 290.303 74.9156 307.033 74.9156C311.011 74.9156 314.951 73.9727 318.626 72.1408C322.301 70.309 325.641 67.6239 328.454 64.2391C331.266 60.8542 333.498 56.8357 335.02 52.4132C336.542 47.9906 337.326 43.2506 337.326 38.4636C337.326 18.3317 323.692 3.87293 307.033 2.01165C289.358 0.0367091 274.099 12.8131 276.741 38.4636Z" fill="#386641"/>
<path d="M310.382 77.0801C325.217 77.0801 337.244 62.6081 337.244 44.756C337.244 26.9039 325.217 12.432 310.382 12.432C295.546 12.432 283.52 26.9039 283.52 44.756C283.52 62.6081 295.546 77.0801 310.382 77.0801Z" fill="#FFB6B6"/>
<path d="M282.566 48.2776C283.417 55.3016 288.392 65.1015 287.227 65.1015C286.061 65.1015 277.778 36.1456 286.061 34.2576C292.07 32.8881 293.413 34.0893 299.029 31.1591L298.237 32.0564C301.953 35.3091 307.127 33.3042 311.367 31.1872C315.62 29.0842 320.782 27.0794 324.51 30.318C326.852 32.3509 327.842 35.8839 329.298 38.8842C330.755 41.8985 333.446 44.7445 336.219 43.8192C338.445 43.0761 339.726 40.0758 339.714 37.2999C339.703 34.524 336.699 31.8832 337.711 29.3926C340.709 22.0119 338.012 16.9811 331.477 13.508C329.1 13.0734 326.724 12.6294 324.347 12.1761C325.592 10.1003 327.102 8.27389 328.821 6.76442C327.935 4.59126 326.922 2.40414 325.209 1.19843C323.31 -0.161458 320.956 -0.063383 318.754 0.0768611C313.838 0.385259 308.925 0.693679 304.016 1.00213C300.381 1.22648 296.617 1.49288 293.367 3.49773C289.312 6.00727 286.656 10.9002 284.722 15.8774C280.387 27.0653 281.075 36.0662 282.566 48.2776Z" fill="#386641"/>
<path d="M2.73057e-06 444.869C-0.000365465 445.017 0.0237048 445.165 0.0708217 445.302C0.117939 445.44 0.187177 445.565 0.274551 445.67C0.361926 445.775 0.465705 445.858 0.579934 445.915C0.694164 445.971 0.816591 446 0.940153 446H720.06C720.309 446 720.548 445.881 720.725 445.669C720.901 445.457 721 445.169 721 444.869C721 444.569 720.901 444.281 720.725 444.069C720.548 443.857 720.309 443.738 720.06 443.738H0.940153C0.816592 443.737 0.694174 443.766 0.579947 443.823C0.465719 443.879 0.361925 443.963 0.274551 444.068C0.187177 444.173 0.11794 444.298 0.0708217 444.435C0.0237037 444.573 -0.000362319 444.72 2.73057e-06 444.869Z" fill="#CCCCCC"/>
</g>
<defs>
<clipPath id="clip0_4_45">
<rect width="721" height="446" fill="white"/>
</clipPath>
</defs>
</svg>
